<svg width="98" height="95" viewBox="0 0 98 95" fill="none" xmlns="http://www.w3.org/2000/svg">
<path d="M96.4159 13.8771C97.9483 9.75856 95.7439 5.21643 91.4923 3.73202C87.2408 2.24762 82.552 4.38305 81.0197 8.50163C79.4873 12.6202 81.6917 17.1623 85.9433 18.6467C90.1948 20.1311 94.8836 17.9957 96.4159 13.8771Z" fill="#78D700"/>
<path d="M36.7336 68.8004C34.5391 75.6097 32.7406 84.9458 38.5095 90.6461C45.0748 97.1331 54.2147 93.2431 59.3253 87.2995C64.3115 81.5028 68.6869 71.9103 71.0329 61.6406C72.198 56.5342 72.8202 51.4037 72.827 46.8036C72.836 41.6578 72.1053 37.1563 70.6596 33.4197C73.8473 30.014 77.2249 26.72 80.7519 23.5773L74.2092 16.584C71.0555 19.3936 68.0082 22.3215 65.1011 25.3393C62.6283 23.2573 59.6601 21.9643 56.2734 21.4997C50.1108 20.6515 44.2174 22.3128 38.7584 26.4351C36.8784 27.8553 35.0391 29.5888 33.2473 31.6204C32.8876 29.6458 32.2542 27.9429 31.347 26.4768C29.6706 23.7636 27.0711 21.9643 23.8292 21.2718C19.1937 20.2812 14.5129 22.0388 9.91583 26.4899C6.67616 29.6282 3.33921 34.259 0 40.2552L8.57426 44.737C9.31631 43.4045 17.5467 30.198 21.7275 30.5575C25.8879 30.9191 23.569 40.2157 23.2003 42.392C22.4039 47.0973 21.0103 51.704 19.2027 56.1353C18.2752 58.4058 7.97248 87.1768 8.05166 87.2031C8.61725 87.3938 17.2503 90.3151 17.2549 90.302L17.2684 90.2647C20.9583 80.0016 24.6369 69.7341 28.3222 59.4687C30.2927 54.656 32.5913 49.725 35.2608 45.2761C38.3376 40.1434 41.532 36.3082 44.7513 33.8755C48.4095 31.1119 54.6785 29.1132 58.667 32.4225C53.9228 37.9694 49.6674 43.7266 46.0431 49.5409C41.842 56.28 38.6249 62.9402 36.7359 68.7983L36.7336 68.8004ZM62.8636 42.4446C63.4201 47.288 62.9722 53.2403 61.5198 59.6024C59.5244 68.338 55.8164 76.6353 51.8392 81.2596C49.88 83.5366 47.9095 84.8143 46.6924 84.5929C45.8848 84.4461 45.1246 84.1722 44.6948 82.4671C43.6631 78.3535 45.5793 68.5396 54.3776 54.4215C56.8956 50.3825 59.7416 46.3719 62.8613 42.4446H62.8636Z" fill="#002300"/>
</svg>
